<svg width="19" height="20" viewBox="0 0 19 20" fill="none" xmlns="http://www.w3.org/2000/svg">
<path d="M10.3071 0.457866L5.59574 6.17399C5.28109 6.55575 5.1025 7.08197 5.1025 7.62882V17.9364C5.1025 19.0714 5.86788 20 6.80334 20H14.4571C15.1374 20 15.7497 19.5047 16.0219 18.7515L18.7942 10.8996C19.5086 8.85665 18.2755 6.58671 16.4471 6.58671H11.6422L12.4501 1.8611C12.5351 1.34521 12.4076 0.818993 12.1014 0.447548C11.5997 -0.150891 10.8003 -0.150891 10.3071 0.457866ZM1.70083 20C2.63629 20 3.40167 19.0714 3.40167 17.9364V9.68208C3.40167 8.54711 2.63629 7.6185 1.70083 7.6185C0.765375 7.6185 0 8.54711 0 9.68208V17.9364C0 19.0714 0.765375 20 1.70083 20Z" fill="#00A988"/>
</svg>
