<svg width="146" height="22" viewBox="0 0 146 22" fill="none" xmlns="http://www.w3.org/2000/svg">
<path d="M86.2511 21.9183L77.0192 8.66184L77.0662 21.9183H72.2793V0.414551H76.5835L85.7348 13.6314L85.6812 0.414551H90.4748V21.9183H86.2511Z" fill="white"/>
<path d="M65.8126 21.9183L63.9359 17.2263H56.6005L54.7766 21.9183H49.5361L58.365 0.414551H62.3498L71.0399 21.9183H65.8126ZM62.4357 13.0168L60.2418 7.26747L58.0874 13.0168H62.4357Z" fill="white"/>
<path d="M115.634 21.9936V0.378906H122.422C124.448 0.378906 125.989 0.784099 127.145 1.61441C128.653 2.53108 129.51 4.22492 129.51 6.33724C129.51 7.94473 128.919 9.32637 127.823 10.3493C130.314 11.8107 130.613 14.3215 130.613 15.4508C130.579 17.7491 129.55 19.6688 127.783 20.7249C126.215 21.8143 124.82 22.0003 122.316 22.0003H115.634V21.9936ZM122.854 17.5166C123.638 17.5166 124.229 17.4302 124.674 17.2509C125.485 16.8922 125.883 16.2479 125.903 15.2382C125.903 14.3149 125.465 13.6108 124.661 13.272C124.037 13.013 123.525 12.9864 122.588 12.9864H120.489V17.5166H122.854ZM122.263 8.65548C122.801 8.65548 123.472 8.62891 123.924 8.4097C124.521 8.08422 124.794 7.57275 124.794 6.70922C124.794 5.83241 124.349 5.31429 123.93 5.12166C123.545 4.92903 123.007 4.84932 122.177 4.84932H120.476V8.64883H122.263V8.65548Z" fill="white"/>
<path d="M132.187 21.9936V0.378906H145.013V4.84932H137.036V8.84147H143.652V13.2853H137.036V17.5166H145.013V21.9936H132.187Z" fill="white"/>
<path d="M113.641 17.6294H109.276V21.9935H113.641V17.6294Z" fill="#00A988"/>
<path d="M99.6325 17.6292C101.021 16.2742 102.396 14.9191 103.764 13.564C106.136 11.2524 107.085 9.41908 107.145 7.01449C107.158 5.08152 106.468 3.31461 105.192 2.03261C103.877 0.704106 102.07 0 99.9779 0C99.9447 0 99.9049 0 99.865 0.00664251L97.839 4.94203C98.7956 4.41727 99.7122 4.47705 99.7122 4.47705C101.326 4.47705 102.329 5.53321 102.329 7.20048C102.263 9.13345 100.855 10.4155 99.0746 12.0429L98.8487 12.2488C97.7925 13.2319 96.7364 14.2283 95.6802 15.2246C94.6839 16.1612 92.4121 18.2935 92.4121 18.2935V22H107.238V17.6359H99.6325V17.6292Z" fill="white"/>
<path d="M51.7926 9.00089H44.0608V4.84932H53.4931L55.3132 0.425404L55.3265 0.378906H39.2051V21.9936H44.0608V13.4514H49.9593L51.7926 9.00089Z" fill="white"/>
<path d="M27.9904 8.70862L5.45898 8.7219L8.88652 0.392191L31.4843 0.378906L27.9904 8.70862Z" fill="#00A988"/>
<path d="M27.5066 10.1768L4.85568 10.19L2.88285 14.9926L0 22.0004L7.31341 18.5198L24.0791 18.5065L27.5066 10.1768Z" fill="#00A988"/>
</svg>
