<svg width="16" height="18" viewBox="0 0 16 18" fill="none" xmlns="http://www.w3.org/2000/svg">
<path d="M5.33333 0H10.6667V1.7151H5.33333V0ZM7.11111 6.00286H8.88889V11.1482H7.11111V6.00286ZM14.2489 5.47118L15.5111 4.25345C15.1289 3.8161 14.7111 3.40448 14.2578 3.04431L12.9956 4.26203C11.6178 3.19867 9.88444 2.56408 8 2.56408C3.58222 2.56408 0 6.02001 0 10.282C0 14.5441 3.57333 18 8 18C12.4267 18 16 14.5441 16 10.282C16 8.47261 15.3422 6.79181 14.2489 5.47118ZM8 16.2935C4.56 16.2935 1.77778 13.6093 1.77778 10.2906C1.77778 6.97189 4.56 4.28776 8 4.28776C11.44 4.28776 14.2222 6.97189 14.2222 10.2906C14.2222 13.6093 11.44 16.2935 8 16.2935Z" fill="#707070" fill-opacity="0.64"/>
</svg>
