<svg width="48" height="48" viewBox="0 0 48 48" fill="none" xmlns="http://www.w3.org/2000/svg">
<path d="M24 48C37.2548 48 48 37.2548 48 24C48 10.7452 37.2548 0 24 0C10.7452 0 0 10.7452 0 24C0 37.2548 10.7452 48 24 48Z" fill="#1B9DF0"/>
<path d="M19.6077 36.6595C30.2517 36.6595 36.0717 27.8395 36.0717 20.1955C36.0717 19.9435 36.0717 19.6915 36.0597 19.4515C37.1877 18.6355 38.1717 17.6155 38.9517 16.4515C37.9197 16.9075 36.8037 17.2195 35.6277 17.3635C36.8277 16.6435 37.7397 15.5155 38.1717 14.1595C37.0557 14.8195 35.8197 15.2995 34.4997 15.5635C33.4437 14.4355 31.9437 13.7395 30.2757 13.7395C27.0837 13.7395 24.4917 16.3315 24.4917 19.5235C24.4917 19.9795 24.5397 20.4235 24.6477 20.8435C19.8357 20.6035 15.5757 18.2995 12.7197 14.7955C12.2277 15.6475 11.9397 16.6435 11.9397 17.6995C11.9397 19.7035 12.9597 21.4795 14.5197 22.5115C13.5717 22.4875 12.6837 22.2235 11.9037 21.7915C11.9037 21.8155 11.9037 21.8395 11.9037 21.8635C11.9037 24.6715 13.8957 26.9995 16.5477 27.5395C16.0677 27.6715 15.5517 27.7435 15.0237 27.7435C14.6517 27.7435 14.2917 27.7075 13.9317 27.6355C14.6637 29.9395 16.7997 31.6075 19.3317 31.6555C17.3517 33.2035 14.8557 34.1275 12.1437 34.1275C11.6757 34.1275 11.2197 34.1035 10.7637 34.0435C13.2957 35.6995 16.3437 36.6595 19.6077 36.6595Z" fill="white"/>
</svg>
