<svg width="48" height="48" viewBox="0 0 48 48" fill="none" xmlns="http://www.w3.org/2000/svg">
<circle cx="24" cy="24" r="24" fill="#62CF72"/>
<g clip-path="url(#clip0)">
<path fill-rule="evenodd" clip-rule="evenodd" d="M36.3325 10.6529C33.3304 7.6498 29.3275 6 25.0649 6C16.2877 6 9.1375 13.1162 9.12986 21.8517C9.12986 24.6496 9.86321 27.3713 11.2535 29.7814L9 38L17.4488 35.7952C19.7787 37.0573 22.3989 37.7263 25.0649 37.7263H25.0726C33.8498 37.7263 41 30.6101 41.0076 21.867C41 17.6322 39.3423 13.6484 36.3325 10.6529ZM25.0649 35.0425C22.6815 35.0425 20.3516 34.4039 18.3196 33.2027L17.8384 32.9138L12.8272 34.2214L14.164 29.3557L13.8508 28.8539C12.5216 26.7555 11.8264 24.3302 11.8264 21.8441C11.8264 14.5911 17.7696 8.67617 25.0726 8.67617C28.6094 8.67617 31.9324 10.0523 34.438 12.5384C36.936 15.0321 38.311 18.3393 38.311 21.8594C38.3034 29.1352 32.3602 35.0425 25.0649 35.0425ZM32.3297 25.1742C31.9324 24.9765 29.9768 24.0185 29.6102 23.8817C29.2435 23.7524 28.9761 23.684 28.7164 24.0794C28.449 24.4747 27.6851 25.3718 27.4559 25.6303C27.2268 25.8964 26.99 25.9268 26.5927 25.7292C26.1955 25.5315 24.9121 25.1133 23.392 23.76C22.2079 22.7109 21.4135 21.4108 21.1766 21.0154C20.9475 20.6201 21.1537 20.4072 21.3523 20.2096C21.528 20.0347 21.7496 19.7458 21.9482 19.5177C22.1468 19.2896 22.2156 19.1224 22.3454 18.8563C22.4753 18.5902 22.4142 18.3621 22.3149 18.1644C22.2156 17.9667 21.4211 16.0128 21.085 15.2221C20.7641 14.4467 20.4357 14.5531 20.1912 14.5455C19.962 14.5303 19.6947 14.5303 19.4273 14.5303C19.1599 14.5303 18.7322 14.6291 18.3655 15.0245C17.9988 15.4198 16.9752 16.3778 16.9752 18.3317C16.9752 20.2856 18.4037 22.1635 18.6023 22.4296C18.8009 22.6957 21.4058 26.6947 25.401 28.4129C26.3483 28.8235 27.0893 29.0668 27.6698 29.2492C28.6247 29.5533 29.4879 29.5077 30.1755 29.4089C30.9394 29.2948 32.5283 28.4509 32.8644 27.5234C33.1929 26.5959 33.1929 25.8052 33.0936 25.6379C32.9943 25.4707 32.7269 25.3718 32.3297 25.1742Z" fill="white"/>
</g>
<defs>
<clipPath id="clip0">
<rect width="32" height="32" fill="white" transform="translate(9 6)"/>
</clipPath>
</defs>
</svg>
